<svg width="48" height="23" viewBox="0 0 48 23" fill="none" xmlns="http://www.w3.org/2000/svg">
<g clip-path="url(#clip0_2206_286)">
<path d="M10.0978 7.32294C10.5573 7.1698 11.0473 7.08813 11.5558 7.08813C13.7814 7.08813 15.6395 8.66855 16.0642 10.7696L19.2189 10.1265C18.4961 6.55724 15.3394 3.87012 11.5558 3.87012C10.688 3.87012 9.8569 4.01101 9.0769 4.27237L10.0978 7.32294Z" fill="white" fill-opacity="0.8"/>
<path d="M6.37566 17.5445L8.50943 15.133C7.55792 14.2897 6.9576 13.0585 6.9576 11.6863C6.9576 10.3162 7.55792 9.08496 8.50943 8.24371L6.37566 5.8302C4.75849 7.2636 3.73755 9.35653 3.73755 11.6863C3.73755 14.0182 4.75849 16.1111 6.37566 17.5445" fill="white"/>
<path d="M16.0642 12.6093C15.6375 14.7083 13.7814 16.2867 11.5578 16.2867C11.0473 16.2867 10.5552 16.205 10.0978 16.0498L9.0769 19.1045C9.8569 19.3638 10.69 19.5047 11.5578 19.5047C15.3373 19.5047 18.492 16.8217 19.2189 13.2565L16.0642 12.6093Z" fill="white" fill-opacity="0.6"/>
<path d="M21.9772 15.2331C21.8731 15.0657 21.7342 14.7982 21.6484 14.6002C21.1482 13.4404 21.1257 12.2397 21.5464 11.0881C22.0099 9.82419 22.896 8.85838 24.0415 8.36425C25.4811 7.74556 27.0717 7.86603 28.452 8.68482C29.328 9.18713 29.9487 9.96304 30.4204 11.0616C30.4796 11.2025 30.5327 11.3515 30.5858 11.4802L21.9772 15.2331ZM24.8522 10.2285C23.8292 10.6675 23.3024 11.6272 23.4126 12.7502L27.7414 10.886C26.9961 10.012 26.0283 9.7221 24.8522 10.2285V10.2285ZM28.2805 14.2837C28.2784 14.2837 28.2784 14.2857 28.2784 14.2857L28.1886 14.2245C27.9293 14.643 27.527 14.984 27.0186 15.2046C26.0508 15.6252 25.1544 15.517 24.5091 14.9514L24.4499 15.0412C24.4499 15.0412 24.4499 15.0392 24.4479 15.0392L23.3493 16.6829C23.623 16.8728 23.9149 17.032 24.2212 17.1607C25.4341 17.665 26.6756 17.6405 27.8987 17.1096C28.7828 16.7258 29.477 16.1418 29.9508 15.4006L28.2805 14.2837ZM33.5935 5.94666V15.082L35.0146 15.6579L34.2081 17.5405L32.6399 16.8871C32.2887 16.7339 32.0478 16.5012 31.8681 16.2378C31.6945 15.9703 31.5659 15.6007 31.5659 15.1065V5.94666H33.5935ZM37.273 12.7563C37.273 11.9784 37.618 11.2801 38.1612 10.8063L36.7033 9.181C35.715 10.0549 35.0922 11.3311 35.0922 12.7523C35.0902 14.1755 35.713 15.4537 36.6992 16.3276L38.155 14.7023C37.6139 14.2265 37.273 13.5323 37.273 12.7563V12.7563ZM39.8621 15.3475C39.5762 15.3475 39.2985 15.2985 39.0412 15.2127L38.3449 17.2812C38.8207 17.4404 39.3291 17.5282 39.86 17.5282C42.1673 17.5303 44.0928 15.8927 44.54 13.7181L42.4001 13.2811C42.1571 14.4634 41.1137 15.3495 39.8621 15.3475V15.3475ZM39.8682 7.98446C39.3393 7.98446 38.8309 8.07022 38.3551 8.22744L39.0453 10.2979C39.3046 10.2122 39.5803 10.1652 39.8661 10.1652C41.1199 10.1672 42.1653 11.0575 42.4022 12.2418L44.5421 11.8089C44.1031 9.63021 42.1776 7.9865 39.8682 7.98446V7.98446Z" fill="white"/>
</g>
<defs>
<clipPath id="clip0_2206_286">
<rect width="47.7492" height="22.5567" fill="white" transform="translate(0.250977 0.413086)"/>
</clipPath>
</defs>
</svg>
